<?xml version="1.0" standalone="no"?>
<!DOCTYPE svg PUBLIC "-//W3C//DTD SVG 20010904//EN"
 "http://www.w3.org/TR/2001/REC-SVG-20010904/DTD/svg10.dtd">
<svg version="1.0" xmlns="http://www.w3.org/2000/svg"
 width="600.000000pt" height="483.000000pt" viewBox="0 0 600.000000 483.000000"
 preserveAspectRatio="xMidYMid meet">
<g transform="translate(0.000000,483.000000) scale(0.100000,-0.100000)"
fill="#000000" stroke="none">
<path d="M1492 4620 c0 -14 2 -19 5 -12 2 6 2 18 0 25 -3 6 -5 1 -5 -13z"/>
<path d="M2682 4529 c-144 -28 -230 -111 -272 -261 -11 -40 -20 -85 -20 -100
0 -25 -4 -28 -34 -28 -63 0 -189 -29 -250 -59 -147 -69 -193 -132 -183 -252 3
-36 12 -82 20 -101 l14 -34 -48 -17 c-59 -21 -155 -108 -211 -190 -117 -172
-197 -414 -277 -838 -55 -287 -71 -346 -148 -561 -97 -271 -117 -371 -117
-593 -1 -159 2 -189 22 -260 30 -104 69 -176 138 -253 42 -47 54 -66 45 -75
-19 -19 -12 -46 17 -61 16 -8 34 -22 41 -30 10 -12 33 -16 93 -16 79 0 116 10
131 37 6 10 14 3 30 -29 12 -23 42 -58 67 -76 31 -24 50 -48 62 -80 21 -56 70
-109 124 -133 48 -22 429 -141 559 -175 200 -53 321 -52 556 0 l103 23 71 -25
c50 -18 91 -25 145 -25 84 0 95 2 410 101 124 39 315 96 425 127 110 31 220
65 245 76 63 28 116 84 142 149 20 51 22 81 29 420 7 308 6 373 -6 416 -18 63
-53 96 -152 143 l-72 34 -3 79 c-3 72 -1 80 19 93 30 20 35 60 25 189 -9 106
-8 111 14 144 28 41 29 64 8 168 -19 91 -34 125 -67 151 -22 17 -25 28 -29
128 -4 88 -11 128 -36 203 -38 110 -119 280 -197 411 l-55 94 17 46 c11 29 18
72 18 116 -1 118 -65 228 -239 412 -177 187 -283 205 -774 130 -9 -1 -25 32
-45 93 -18 52 -44 116 -59 141 -65 110 -185 170 -296 148z m122 -25 c68 -23
147 -99 181 -176 29 -65 48 -198 28 -198 -6 0 -12 33 -15 73 -8 124 -69 221
-171 271 -86 43 -158 30 -215 -40 -42 -51 -62 -112 -69 -214 l-6 -85 -63 3
-64 4 0 36 c0 29 3 34 11 22 8 -12 9 -9 5 13 -8 33 13 109 27 100 6 -3 7 -1 4
5 -9 13 2 44 13 37 4 -3 11 2 14 11 4 10 2 13 -7 8 -6 -5 2 8 18 28 28 34 125
98 125 82 0 -3 10 0 23 9 46 30 95 33 161 11z m-7 -36 c15 -6 31 -12 34 -12 4
-1 15 -10 25 -21 11 -12 15 -14 9 -5 -6 10 -2 9 12 -4 13 -10 20 -23 17 -28
-3 -4 0 -7 7 -6 7 2 14 -3 15 -9 1 -7 2 -18 3 -24 0 -5 6 -7 11 -4 6 3 11 1
11 -4 1 -6 3 -15 4 -21 1 -5 3 -15 4 -21 0 -5 6 -7 13 -3 8 5 9 2 5 -11 -4 -9
-3 -23 2 -29 5 -6 13 -39 17 -74 5 -52 4 -62 -9 -62 -18 0 -28 24 -21 48 5 14
4 15 -5 2 -6 -9 -11 -10 -11 -3 0 6 -3 19 -7 29 -5 13 -3 15 8 10 8 -4 6 -1
-5 8 -10 8 -15 19 -12 25 4 5 1 13 -5 17 -8 4 -9 3 -5 -4 4 -7 5 -12 2 -12
-10 0 -37 60 -31 70 3 5 0 12 -6 16 -8 5 -9 3 -4 -7 6 -11 5 -11 -4 -3 -7 6
-14 20 -15 30 -2 11 -9 19 -17 19 -8 1 -13 6 -11 13 1 7 -4 11 -10 10 -7 -2
-12 3 -10 10 1 6 -4 11 -10 10 -7 -2 -12 2 -11 9 2 8 -4 10 -14 6 -11 -4 -14
-3 -9 5 5 8 1 10 -10 5 -12 -4 -15 -3 -10 6 5 8 3 12 -5 10 -8 -1 -27 -1 -44
0 -23 1 -27 3 -15 11 21 13 83 12 117 -2z m-64 -42 c50 -21 124 -108 167 -198
22 -45 40 -87 40 -94 0 -17 -154 -22 -284 -10 l-99 10 6 80 c5 83 33 174 63
207 20 22 62 24 107 5z m310 -266 c3 -11 1 -20 -4 -20 -5 0 -9 9 -9 20 0 11 2
20 4 20 2 0 6 -9 9 -20z m496 -1 c97 -12 144 -29 185 -67 24 -23 126 -142 175
-205 51 -65 -91 31 -148 100 -17 21 -31 32 -31 25 0 -33 183 -187 192 -160 6
17 62 -78 83 -141 46 -140 -25 -285 -177 -362 -31 -16 -60 -29 -64 -29 -3 0
10 20 31 46 20 25 35 47 32 50 -6 6 -77 -79 -77 -93 0 -10 -41 -26 -48 -18 -2
2 4 15 13 29 40 61 -41 130 -90 76 -22 -25 -23 -65 0 -90 23 -26 13 -37 -37
-42 -48 -4 -77 18 -78 60 0 26 -33 62 -57 62 -9 0 -27 -10 -40 -22 -37 -35
-27 -90 18 -93 13 -1 24 -6 26 -12 6 -18 -161 -3 -264 22 -166 42 -323 123
-478 245 -39 32 -136 131 -215 220 -78 89 -165 180 -194 202 -56 45 -140 88
-171 88 -39 0 2 20 85 41 77 20 102 21 280 16 110 -4 230 -13 275 -22 203 -39
317 -55 395 -55 47 0 90 4 97 8 6 4 -35 7 -90 8 -86 1 -331 34 -343 47 -3 2
37 7 88 10 51 3 154 15 228 27 74 11 176 24 225 29 50 4 90 9 90 10 0 0 38 -4
84 -10z m369 -231 c17 -21 32 -42 32 -47 0 -5 10 -16 23 -24 13 -8 41 -48 63
-89 37 -69 39 -77 39 -163 0 -112 -22 -162 -110 -243 -84 -77 -265 -160 -265
-120 0 8 5 19 12 26 9 9 9 12 -2 13 -8 0 15 11 53 24 197 68 300 211 267 372
-17 81 -59 156 -162 286 -67 83 -76 98 -36 57 29 -31 68 -72 86 -92z m-1737
93 c79 -30 152 -94 291 -253 151 -172 222 -239 340 -318 191 -128 406 -200
597 -200 64 0 68 -2 90 -31 l24 -32 -149 6 c-196 7 -322 41 -484 129 -172 94
-263 171 -452 384 -195 218 -264 272 -348 276 -71 2 -121 -51 -118 -127 0 -25
2 -30 5 -15 10 65 14 75 25 59 8 -11 9 -10 4 5 -4 10 -1 25 5 32 20 24 28 15
17 -17 -6 -17 -8 -62 -6 -100 3 -38 1 -66 -3 -63 -5 3 -9 14 -9 25 0 10 -5 19
-10 19 -6 0 -5 -13 3 -32 11 -27 11 -38 1 -58 l-13 -24 -10 27 c-23 61 -34
151 -22 192 14 51 26 65 81 103 53 37 72 39 141 13z m-48 -68 c6 -11 -89 -174
-97 -166 -11 12 -6 103 8 138 13 31 20 35 50 35 19 0 37 -3 39 -7z m108 -70
c32 -26 56 -49 54 -52 -8 -7 -116 63 -126 82 -17 31 11 19 72 -30z m27 -60
c29 -13 52 -27 50 -32 -10 -25 -84 -141 -90 -141 -15 0 -8 29 9 39 10 5 15 12
11 16 -10 10 -49 -5 -43 -16 4 -5 1 -9 -4 -9 -16 0 -13 -21 6 -42 19 -22 10
-36 -12 -18 -19 16 -19 74 0 90 9 7 29 13 46 12 16 0 27 4 24 9 -4 5 -17 9
-29 9 -59 0 -96 -80 -56 -120 22 -22 22 -23 5 -61 -10 -21 -20 -39 -22 -39
-15 0 -86 45 -125 80 l-48 41 16 32 c9 18 44 78 77 134 l60 102 36 -31 c19
-17 59 -42 89 -55z m155 -135 c66 -75 74 -88 58 -93 -26 -8 -45 -64 -32 -97
13 -33 38 -42 67 -23 36 23 100 9 152 -34 23 -19 42 -38 42 -42 0 -13 -87 -39
-133 -39 -67 0 -103 18 -173 88 -67 66 -106 90 -163 100 l-38 7 66 112 c36 62
68 112 71 110 3 -1 41 -41 83 -89z m-453 -33 c0 -9 -9 -15 -23 -15 -37 0 -130
-73 -182 -142 -26 -35 -66 -101 -90 -148 -95 -192 -142 -358 -220 -775 -37
-197 -69 -320 -122 -465 -99 -270 -122 -374 -130 -570 -4 -108 -1 -165 10
-225 28 -147 62 -216 163 -330 37 -42 53 -53 57 -42 7 19 -43 89 -59 83 -7 -3
-18 3 -26 12 -12 16 -11 16 6 2 17 -13 19 -13 14 0 -2 8 -13 15 -23 15 -10 0
-20 6 -23 14 -3 8 0 11 7 7 6 -4 11 -4 11 1 -1 12 -40 59 -40 47 0 -5 5 -15
12 -22 6 -6 9 -15 5 -18 -9 -10 -63 109 -82 181 -9 33 -18 112 -22 176 -10
193 22 358 127 654 72 202 86 256 151 595 64 330 110 483 200 660 53 103 105
174 121 164 5 -3 26 9 46 28 21 19 48 43 62 52 l25 18 -25 -7 c-32 -9 -15 10
18 20 21 6 21 5 11 -21 -5 -16 -14 -33 -18 -39 -14 -18 -148 -336 -177 -420
-25 -71 -28 -96 -30 -220 -1 -77 -7 -165 -14 -195 -6 -30 -20 -107 -31 -170
-31 -176 -54 -255 -136 -474 -123 -325 -149 -452 -141 -686 5 -113 10 -146 31
-205 14 -38 24 -71 23 -73 -7 -7 -36 61 -48 114 -7 30 -16 54 -20 54 -21 0 32
-138 76 -200 20 -28 36 -53 36 -57 0 -12 -75 -123 -81 -120 -3 1 -36 38 -73
81 -126 149 -158 248 -159 491 -1 212 14 291 119 601 74 222 91 285 143 550
85 425 138 597 245 787 49 89 144 189 209 221 59 30 67 31 67 11z m55 -69 c20
-19 57 -45 81 -58 24 -12 44 -27 43 -33 0 -5 -66 -143 -147 -305 -145 -290
-147 -295 -176 -293 -26 2 -28 1 -15 -13 38 -37 61 -3 246 369 131 264 139
277 166 277 44 0 106 -37 177 -105 38 -36 81 -67 104 -75 43 -14 152 -8 169 9
27 27 27 24 1 -269 -17 -199 -39 -315 -68 -366 -23 -41 -52 -55 -68 -32 -8 11
-9 10 -6 -1 2 -8 12 -19 21 -25 38 -24 89 70 116 214 12 64 29 238 39 395 6
87 10 110 22 110 27 0 33 -71 35 -460 4 -464 21 -1568 31 -1885 5 -159 3 -263
-7 -355 -7 -71 -13 -167 -14 -212 l0 -82 -55 -6 c-77 -9 -167 7 -370 66 -279
80 -372 110 -423 136 -27 13 -52 22 -55 19 -19 -20 300 -128 610 -207 154 -39
376 -47 494 -18 61 16 90 19 111 12 49 -17 -186 -57 -332 -58 -144 0 -179 8
-529 116 -325 100 -351 113 -382 188 -21 50 -18 52 39 26 55 -25 346 -115 457
-141 75 -18 141 -13 218 16 29 11 63 20 76 20 35 0 72 35 87 82 10 33 14 205
16 761 l4 717 -27 10 c-21 9 -48 6 -118 -12 -164 -41 -446 -22 -696 46 l-85
23 -3 44 c-3 44 -18 73 -32 64 -4 -2 -10 95 -14 218 -3 122 -9 290 -12 374 -6
137 -4 158 15 222 28 94 205 511 216 511 1 0 19 -15 40 -34z m-165 -26 c-24
-21 -47 -37 -50 -34 -6 7 71 74 85 74 6 0 -10 -18 -35 -40z m660 22 c0 -4 -10
-12 -22 -17 -15 -7 -23 -19 -23 -35 0 -18 6 -26 23 -28 30 -4 28 -22 -2 -22
-37 0 -51 64 -20 94 16 17 44 22 44 8z m21 -33 c20 -10 59 -45 59 -53 0 -2
-24 2 -52 9 -29 6 -53 17 -52 23 2 27 5 32 15 32 6 0 19 -5 30 -11z m1153
-145 c9 -8 15 -27 15 -42 -1 -21 -2 -23 -6 -7 -6 23 -22 45 -34 45 -18 0 -39
-33 -33 -52 4 -14 2 -18 -5 -14 -19 12 -12 54 11 70 28 20 33 20 52 0z m521
-279 c84 -174 115 -276 122 -395 l6 -95 -211 -34 c-116 -18 -218 -39 -227 -45
-9 -7 -20 -28 -25 -46 -7 -30 -8 -31 -9 -9 -2 49 -98 403 -138 506 -3 7 2 13
10 13 46 0 64 83 26 121 -14 14 -29 19 -45 16 -20 -3 -24 0 -24 18 0 18 10 26
53 40 l52 17 53 -58 c29 -33 71 -85 93 -116 22 -32 42 -58 45 -58 13 0 -48 91
-109 162 l-68 78 27 10 c15 6 48 25 73 41 25 17 47 27 49 21 6 -20 265 -402
270 -398 2 3 -50 90 -115 193 -66 103 -125 197 -130 207 -9 16 -4 27 25 62
l36 43 49 -82 c28 -45 78 -140 112 -212z m-726 230 c3 -20 3 -20 -18 -1 -17
15 -23 16 -36 6 -18 -15 -19 -41 -2 -59 10 -11 9 -13 -2 -9 -23 7 -31 43 -14
67 19 28 66 25 72 -4z m199 -93 c3 -107 2 -112 -18 -112 -19 0 -20 6 -20 116
0 105 2 115 18 112 15 -3 17 -18 20 -116z m-880 79 c15 -10 63 -37 107 -59
l81 -40 18 -79 c34 -140 112 -298 169 -338 39 -27 38 -16 -2 24 -48 48 -114
180 -141 283 -25 98 -25 102 3 93 139 -43 220 -57 351 -60 114 -3 141 -6 148
-19 6 -11 5 -16 -6 -16 -8 0 -22 -10 -30 -22 -36 -51 -5 -118 54 -118 17 0 33
-6 35 -12 2 -7 11 -118 19 -246 9 -128 19 -238 23 -245 4 -7 -8 1 -27 17 -30
25 -39 27 -80 22 -25 -4 -146 -18 -270 -32 -265 -29 -259 -26 -266 -130 -7
-92 22 -579 36 -604 14 -25 33 -35 99 -49 47 -10 75 -7 255 25 199 35 256 55
270 90 4 9 4 82 0 163 -5 121 -4 151 9 175 l16 29 6 -29 c4 -16 17 -67 31
-113 13 -46 20 -89 17 -95 -4 -6 -8 -37 -9 -69 -1 -48 2 -59 18 -68 27 -15 48
-4 48 24 0 13 6 31 13 41 12 16 14 16 26 2 20 -24 46 -19 60 11 12 26 12 26
27 5 18 -26 111 -47 168 -38 36 6 192 44 253 62 20 6 21 2 25 -63 2 -37 3 -69
2 -71 -1 -2 -16 4 -33 12 -48 25 -116 19 -379 -33 -136 -27 -323 -64 -417 -81
-356 -65 -438 -93 -498 -172 -59 -77 -75 -197 -76 -568 -1 -326 16 -467 64
-520 14 -15 10 -18 -38 -29 -98 -24 -132 -29 -160 -24 -44 9 -50 38 -32 175
21 162 22 367 6 1183 -8 385 -15 871 -16 1080 0 209 -5 417 -9 463 -4 45 -5
82 -1 82 4 0 19 -8 33 -19z m689 -35 c21 -24 53 -69 72 -101 28 -46 32 -58 20
-66 -21 -13 -22 -12 -43 32 -10 23 -40 68 -67 101 -44 55 -53 78 -29 78 4 0
26 -20 47 -44z m137 -42 c-6 -3 -9 -16 -6 -29 6 -36 -25 -45 -49 -14 -25 32
-24 37 9 42 38 6 59 6 46 1z m-4 -104 c0 -11 -2 -20 -5 -20 -2 0 -9 9 -15 20
-9 16 -8 20 5 20 8 0 15 -9 15 -20z m134 -42 c21 -30 20 -44 -4 -68 -17 -17
-23 -18 -39 -8 -16 10 -23 9 -38 -4 -12 -11 -23 -14 -32 -8 -8 4 -21 6 -29 3
-11 -5 -13 -1 -7 16 4 14 1 31 -9 46 -17 26 -23 24 74 38 55 9 69 6 84 -15z
m-196 -37 c13 -38 5 -71 -19 -71 -33 0 -52 63 -27 88 20 20 35 14 46 -17z m34
-30 c1 -19 -1 -36 -7 -38 -6 -1 -10 17 -10 42 -1 51 12 48 17 -4z m144 -136
c50 -164 101 -368 119 -475 15 -98 38 -420 30 -428 -2 -3 -11 1 -20 8 -11 9
-15 33 -15 94 0 45 -7 138 -15 208 -8 70 -12 135 -8 144 4 12 3 15 -5 10 -8
-5 -12 0 -12 12 0 11 -16 82 -35 159 -39 155 -39 157 -23 147 7 -4 8 -3 4 5
-4 6 -12 8 -18 5 -7 -5 -9 2 -4 22 4 17 3 24 -2 16 -10 -15 -67 162 -57 179
15 23 29 -2 61 -106z m-102 97 c2 -4 12 -118 21 -252 23 -348 54 -548 111
-724 14 -40 14 -50 3 -57 -8 -4 -17 -5 -21 -1 -13 14 -67 239 -87 362 -11 69
-25 197 -31 285 -6 88 -15 209 -20 270 -5 60 -6 113 -4 117 7 10 21 10 28 0z
m92 -250 c64 -224 92 -394 108 -649 3 -51 2 -83 -4 -83 -6 0 -10 -7 -10 -15 0
-21 -17 -19 -29 3 -17 31 -60 213 -80 341 -12 68 -25 203 -31 300 -5 97 -12
196 -15 221 -16 132 -16 129 5 65 11 -33 36 -116 56 -183z m-1988 -345 l-1
-129 -26 -10 c-61 -23 -59 -12 -54 -321 l5 -282 -30 -16 c-16 -9 -36 -28 -43
-43 -8 -14 -27 -44 -43 -67 -23 -31 -27 -44 -20 -57 11 -18 1 -372 -11 -392
-8 -12 -33 17 -59 68 -45 87 -58 296 -31 476 19 124 40 196 127 425 77 204
118 352 143 516 9 61 19 121 23 135 9 36 21 -150 20 -303z m2615 176 c-2 -7 2
-12 8 -10 31 6 87 -181 74 -249 -9 -48 -33 -62 -151 -89 -214 -49 -245 -34
-280 131 -17 83 -37 132 -63 151 -20 14 -41 -1 -41 -28 0 -11 -5 -19 -11 -19
-12 0 -2 39 15 57 6 7 61 20 121 28 61 9 142 22 180 30 85 16 151 15 148 -2z
m-403 -104 c9 -16 7 -19 -15 -19 -18 0 -25 5 -25 18 0 37 21 38 40 1z m-355
-11 c27 -32 42 -80 56 -173 19 -133 -8 -164 -168 -189 -161 -26 -257 -31 -293
-16 -41 17 -58 52 -81 173 -10 57 -27 113 -38 127 -23 31 -51 38 -51 13 0 -14
2 -15 9 -4 7 10 12 8 25 -10 23 -34 20 -38 -19 -26 -23 7 -35 17 -35 28 0 21
26 49 45 49 23 0 63 -57 70 -100 4 -22 11 -40 16 -40 5 0 6 12 3 28 -10 39
-43 102 -54 102 -6 0 -10 4 -10 8 0 5 64 14 143 21 78 7 178 19 222 25 119 18
132 17 160 -16z m343 -24 c28 -6 32 -11 42 -63 34 -169 59 -196 180 -187 41 3
109 14 151 24 l77 19 6 -51 c3 -28 6 -86 6 -128 0 -88 -8 -102 -73 -118 -23
-7 -65 -18 -92 -26 -117 -33 -191 -42 -252 -30 -45 9 -59 16 -61 31 -4 20 -3
20 13 0 9 -11 14 -15 10 -8 -3 7 -7 29 -9 49 -1 19 -7 39 -14 42 -6 5 -15 81
-21 197 -6 105 -13 205 -16 223 -4 35 0 37 53 26z m-885 -103 c22 -9 27 -21
42 -103 34 -187 68 -202 353 -159 73 11 141 25 151 30 17 10 18 1 24 -132 l6
-142 -27 -25 c-23 -22 -53 -30 -192 -55 -91 -17 -198 -30 -238 -30 -68 0 -76
2 -98 28 -13 15 -24 24 -24 20 0 -5 5 -14 12 -21 6 -6 9 -14 6 -18 -4 -3 -14
5 -23 19 -12 18 -18 67 -25 193 -5 93 -13 222 -16 287 -7 127 -7 129 49 108z
m-1273 -111 c0 -43 -9 -48 -48 -26 l-24 13 31 13 c18 7 30 15 27 17 -2 2 -21
-3 -42 -12 -37 -15 -38 -16 -18 -35 21 -20 176 -71 290 -94 241 -50 440 -56
601 -16 45 11 89 17 98 14 11 -4 15 -20 15 -55 0 -49 0 -49 -32 -49 -18 0 -76
-9 -128 -20 -53 -11 -135 -20 -185 -20 -175 0 -513 66 -642 125 l-54 24 3 58
c3 58 3 58 48 81 24 12 48 22 52 22 4 0 8 -18 8 -40z m65 -204 c189 -55 466
-93 584 -81 36 4 108 15 160 26 113 23 104 23 98 -1 -3 -11 -1 -20 3 -20 5 0
11 10 13 23 3 12 4 -273 2 -633 -1 -432 -6 -669 -13 -695 -12 -43 -47 -79 -69
-71 -7 3 -39 -4 -71 -17 -102 -39 -181 -31 -427 42 -269 80 -391 137 -424 199
-8 16 -13 197 -17 656 l-6 635 39 -19 c21 -10 79 -30 128 -44z m2050 -40 c13
-1 20 -8 20 -21 0 -28 -26 -30 -58 -5 -33 26 -35 44 -4 34 12 -4 31 -7 42 -8z
m-89 -41 c-3 -8 -20 -18 -38 -24 -31 -9 -32 -9 -6 -10 15 -1 30 4 33 9 9 15
25 12 19 -4 -7 -18 -34 -25 -62 -15 -24 9 -30 39 -8 39 8 0 24 9 37 19 24 20
36 13 25 -14z m39 -6 c-4 -5 -1 -17 5 -26 9 -16 10 -15 5 5 -4 12 -2 22 4 22
16 0 19 -13 10 -37 -14 -38 -35 -28 -36 17 -1 24 2 38 8 35 5 -4 7 -11 4 -16z
m-99 -76 l-6 -28 15 25 c13 22 14 23 14 5 1 -29 -12 -45 -27 -36 -9 5 -11 17
-6 34 8 36 18 35 10 0z m540 -82 c-4 -5 3 -7 14 -4 11 3 20 1 20 -3 0 -13
-435 -98 -452 -89 -7 5 -9 4 -5 -1 4 -4 -105 -31 -245 -60 -139 -29 -280 -62
-313 -73 -83 -30 -104 -36 -85 -22 23 16 8 19 -20 4 -17 -9 -20 -13 -8 -13 11
0 0 -17 -35 -52 -34 -35 -58 -71 -70 -105 -19 -53 -36 -232 -37 -380 0 -46 -4
-83 -9 -83 -27 0 -41 15 -42 44 l-1 31 -9 -30 c-4 -17 -7 68 -5 200 2 209 5
235 24 286 47 120 110 151 418 209 93 17 272 51 397 76 126 25 236 43 245 39
9 -3 13 -2 8 2 -4 4 16 13 46 19 65 14 171 17 164 5z m109 -43 c7 -7 2 -9 -17
-6 -15 3 -25 1 -22 -3 6 -10 -19 -12 -29 -3 -3 3 -3 12 -1 19 6 15 53 10 69
-7z m-80 -7 c-3 -22 -20 -24 -22 -3 -1 10 4 19 12 19 7 0 12 -7 10 -16z m-45
-2 c0 7 5 9 11 5 15 -9 -4 -26 -33 -28 -13 -1 -30 3 -38 8 -13 10 -13 9 0 -8
14 -18 13 -19 -2 -13 -10 3 -18 2 -18 -3 0 -6 -7 -10 -16 -10 -8 0 -13 4 -10
8 3 5 -7 8 -22 7 -17 0 -28 -7 -30 -18 -4 -20 -28 -23 -35 -4 -3 7 -6 5 -6 -5
-1 -17 -21 -24 -34 -12 -9 9 4 35 14 28 5 -3 9 -1 9 4 0 5 6 9 13 9 6 0 38 8
70 18 32 9 64 14 72 11 8 -3 17 -1 21 5 4 6 11 6 20 -2 11 -9 14 -9 14 0z
m203 -25 c54 -18 74 -37 25 -23 -41 11 -53 9 -333 -61 -126 -32 -331 -76 -455
-99 -297 -55 -351 -73 -411 -131 -72 -69 -84 -119 -81 -352 1 -104 -2 -188 -6
-188 -4 0 -17 3 -29 6 -23 6 -23 8 -23 178 0 95 5 199 11 231 11 60 36 121 45
112 3 -3 -1 -18 -9 -34 -8 -15 -17 -44 -21 -63 -5 -32 -5 -33 5 -10 6 14 18
42 27 62 8 21 33 57 56 80 41 42 25 36 -26 -11 -16 -14 -28 -20 -28 -14 0 24
86 84 147 103 35 11 169 41 299 67 153 31 227 50 208 53 -15 3 -28 9 -28 15
-1 5 -7 10 -14 11 -6 1 -10 -2 -7 -6 3 -5 -6 -8 -21 -7 -31 2 -45 -19 -17 -26
11 -3 8 -5 -10 -6 -16 0 -26 3 -22 8 3 5 1 12 -4 15 -5 4 -13 1 -17 -5 -3 -6
0 -15 7 -20 10 -6 6 -9 -13 -9 -16 0 -28 5 -28 11 0 5 5 7 10 4 6 -4 10 -3 9
2 -4 22 3 31 21 28 11 -2 20 0 20 6 0 5 3 8 8 7 4 -1 18 2 32 5 64 16 101 17
106 2 4 -8 13 -15 22 -15 8 0 13 -3 9 -6 -3 -4 -14 -3 -24 1 -10 5 -22 7 -26
6 -5 -1 -5 4 -1 11 5 10 4 10 -6 1 -20 -18 -4 -28 43 -28 52 1 318 65 312 76
-3 4 3 5 12 3 10 -2 47 2 83 10 85 19 88 19 143 0z m-445 -39 c0 -25 -16 -33
-34 -15 -6 6 -15 5 -24 -1 -13 -9 -12 -10 3 -5 9 3 17 1 17 -4 0 -15 -44 -12
-66 4 -24 18 -19 23 36 31 25 4 47 9 49 11 11 10 19 2 19 -21z m122 13 c0 -4
-4 -8 -9 -8 -6 0 -12 4 -15 8 -3 5 1 9 9 9 8 0 15 -4 15 -9z m379 -21 c14 -6
34 -28 45 -47 20 -34 21 -47 18 -370 -3 -352 -11 -438 -42 -500 -43 -84 -97
-112 -351 -180 -85 -23 -253 -72 -374 -110 -328 -103 -393 -120 -444 -120 -59
0 -102 26 -127 76 -18 37 -19 64 -19 434 1 448 3 468 76 541 49 49 101 65 434
129 143 27 355 75 470 105 217 56 273 63 314 42z m-2869 -73 c0 -37 -4 -53
-11 -48 -6 3 -8 17 -5 29 4 15 0 29 -9 39 -14 13 -13 16 2 25 10 6 19 11 21
11 1 0 2 -25 2 -56z m2041 22 c-7 -8 -10 -20 -6 -26 3 -6 -3 -10 -14 -10 -12
0 -21 5 -21 11 0 5 6 7 13 3 8 -5 8 -3 -2 9 -17 21 -31 13 -24 -14 5 -19 3
-21 -25 -17 -18 2 -32 1 -32 -2 0 -4 -15 -10 -32 -13 -18 -3 -48 -9 -65 -13
-21 -4 -33 -3 -33 4 0 5 9 8 20 5 21 -6 28 11 8 23 -6 4 -8 3 -4 -4 4 -6 -1
-10 -13 -9 -10 0 -17 7 -14 13 2 7 13 11 24 9 10 -2 21 1 25 6 3 6 17 8 31 4
14 -3 22 -2 19 3 -8 13 28 11 36 -2 4 -6 17 -12 28 -12 11 -1 18 1 14 5 -3 3
-10 6 -15 6 -12 0 -7 20 6 21 6 0 18 4 28 9 9 4 24 5 32 1 8 -3 15 0 15 6 0 6
3 8 6 5 4 -4 1 -13 -5 -21z m139 -2 c0 -2 -9 -4 -20 -4 -11 0 -20 4 -20 9 0 5
9 7 20 4 11 -3 20 -7 20 -9z m-2210 -18 c0 -7 -13 -30 -30 -51 -16 -21 -30
-43 -30 -49 0 -6 7 -2 15 8 8 11 15 14 15 7 0 -7 5 -9 10 -6 6 3 15 -6 21 -22
11 -29 -6 -119 -37 -202 -12 -34 -13 -29 -11 74 1 61 7 119 12 130 8 18 7 19
-8 6 -19 -15 -47 -8 -47 11 0 12 76 108 86 108 2 0 4 -6 4 -14z m1817 -31 c0
-18 -9 -19 -26 -2 -11 10 -13 9 -7 -1 4 -7 0 -15 -9 -18 -13 -6 -14 -8 -3 -15
10 -7 9 -9 -4 -9 -10 0 -18 4 -18 9 0 5 -3 17 -7 27 -4 10 -2 15 3 11 6 -3 16
-2 24 4 23 14 47 11 47 -6z m-79 -31 c2 -14 -11 -25 -53 -43 -62 -26 -108 -74
-137 -138 -21 -49 -42 -244 -36 -335 2 -32 1 -53 -4 -46 -4 7 -8 44 -8 81 0
43 -4 66 -10 62 -5 -3 -10 -1 -10 4 0 6 5 11 11 11 7 0 9 10 7 25 -3 14 -1 28
3 31 12 7 12 84 1 84 -5 0 -8 -15 -7 -34 3 -35 -21 -59 -35 -37 -3 6 -6 -16
-6 -47 -1 -31 1 -42 3 -24 4 31 16 41 28 23 3 -5 1 -12 -4 -16 -5 -3 -9 -14
-8 -25 1 -10 4 -17 7 -15 3 2 6 -14 7 -36 2 -37 1 -39 -26 -39 -24 0 -28 3
-24 20 3 11 9 20 14 20 5 0 6 -7 3 -15 -4 -8 -1 -15 4 -15 16 0 24 18 11 26
-8 5 -8 8 1 14 8 5 7 9 -5 13 -9 4 -13 3 -10 -3 3 -6 1 -10 -6 -10 -9 0 -10
30 -6 118 7 148 22 195 93 291 1 1 8 0 15 -4 8 -6 4 -12 -12 -22 l-24 -13 28
6 c17 4 27 2 27 -5 0 -6 -5 -11 -11 -11 -5 0 -7 -4 -4 -10 6 -9 82 58 78 70
-1 3 10 6 23 6 33 2 41 11 24 27 -10 10 -11 9 -5 -2 5 -9 3 -12 -5 -9 -24 8
-21 24 7 34 39 14 58 11 61 -12z m-1709 -48 l-1 -31 -9 32 c-5 18 -14 35 -19
38 -6 3 -10 11 -10 17 0 6 9 3 20 -7 12 -11 20 -30 19 -49z m1791 48 c0 -2 -7
-4 -15 -4 -8 0 -15 4 -15 10 0 5 7 7 15 4 8 -4 15 -8 15 -10z m-171 -18 c9
-11 6 -13 -14 -13 -26 0 -34 12 -12 20 6 3 13 6 13 6 1 1 7 -5 13 -13z m-39
-40 c-6 -5 -16 -3 -27 5 -16 13 -17 12 -4 -4 8 -9 11 -21 7 -24 -10 -10 -27
18 -23 37 2 8 9 14 15 13 7 -2 12 2 12 9 0 6 6 3 14 -8 9 -11 11 -23 6 -28z
m-1666 -124 c-2 -142 -17 -253 -41 -312 -4 -8 -7 -22 -8 -31 -4 -28 -37 -109
-46 -109 -13 0 -11 6 11 42 32 53 23 56 -11 4 -16 -27 -33 -46 -36 -43 -3 3
11 32 31 64 59 97 67 131 76 323 9 196 7 180 18 180 4 0 6 -53 6 -118z m96 64
c0 -8 -12 -52 -26 -98 -15 -46 -41 -141 -59 -213 -18 -71 -39 -147 -48 -167
-26 -62 -37 -43 -12 20 13 31 31 91 40 132 10 41 32 125 51 186 19 62 34 121
34 133 0 12 5 21 10 21 6 0 10 -7 10 -14z m-2 -248 c0 -95 -3 -192 -5 -215
l-5 -41 -59 -4 c-32 -1 -59 -2 -59 -1 0 2 7 20 15 40 8 21 27 92 44 158 32
132 61 235 66 235 1 0 3 -78 3 -172z m1449 8 c0 -8 -6 -12 -15 -9 -11 5 -11 7
0 14 7 5 13 9 14 9 0 0 1 -6 1 -14z m-1617 -109 c0 -6 -11 0 -25 13 -14 13
-25 28 -25 33 0 6 11 0 25 -13 14 -13 25 -28 25 -33z m-105 -84 l28 -38 -31
29 c-18 17 -32 33 -32 38 0 15 7 9 35 -29z m1728 5 c3 -13 2 -81 -2 -152 -5
-107 -9 -131 -23 -140 -14 -8 -22 -6 -38 10 -21 20 -21 22 -6 135 9 63 17 126
18 142 3 35 43 39 51 5z m18 -111 c-13 -13 -15 1 -4 30 7 17 8 17 11 -1 2 -10
-1 -23 -7 -29z m-126 22 c31 -11 31 -12 24 -63 -17 -117 -5 -156 46 -156 46 0
57 25 50 106 l-7 74 33 -6 c57 -10 67 -16 39 -24 l-25 -8 23 -1 24 -1 -7 -148
c-9 -172 6 -256 53 -305 l26 -28 -96 35 c-187 68 -189 70 -207 187 -13 79 -24
349 -14 349 4 0 21 -5 38 -11z m-1355 -13 c0 -19 -76 -28 -194 -24 -59 2 -91
7 -93 15 -3 9 29 13 129 16 73 1 139 4 146 5 6 1 12 -4 12 -12z m-189 -59
c-11 -11 -41 -3 -41 11 0 5 12 7 26 4 17 -3 22 -8 15 -15z m141 11 c-15 -15
-131 -25 -117 -10 9 9 32 14 110 20 14 2 16 -1 7 -10z"/>
<path d="M2587 4450 c-28 -33 -69 -132 -69 -167 0 -13 -4 -23 -8 -23 -4 0 -7
-25 -6 -55 0 -30 4 -55 7 -55 12 0 19 31 19 84 0 67 21 138 59 199 35 54 34
60 -2 17z"/>
<path d="M2431 4244 c0 -11 3 -14 6 -6 3 7 2 16 -1 19 -3 4 -6 -2 -5 -13z"/>
<path d="M2896 4297 c3 -10 9 -15 12 -12 3 3 0 11 -7 18 -10 9 -11 8 -5 -6z"/>
<path d="M2690 3833 c0 -6 5 -15 10 -18 6 -4 27 -39 48 -78 33 -66 37 -79 37
-154 0 -55 3 -79 10 -72 6 6 10 38 9 73 0 51 -7 78 -36 137 -35 74 -77 134
-78 112z"/>
<path d="M3732 3633 c-18 -84 -26 -203 -13 -203 7 0 11 19 11 51 0 27 5 82 11
120 12 81 6 104 -9 32z"/>
<path d="M3289 3618 c21 -29 54 -81 72 -116 17 -34 34 -60 36 -58 13 13 -119
226 -139 226 -5 0 9 -24 31 -52z"/>
<path d="M3186 3498 c39 -40 92 -99 117 -131 26 -33 47 -54 47 -49 0 26 -201
252 -224 252 -6 0 21 -33 60 -72z"/>
<path d="M3007 3479 c27 -48 100 -125 139 -150 51 -31 51 -18 0 18 -25 18 -68
61 -96 97 -56 72 -71 84 -43 35z"/>
<path d="M3193 3435 c0 -8 4 -12 9 -9 5 3 6 10 3 15 -9 13 -12 11 -12 -6z"/>
<path d="M3986 3807 c3 -10 9 -15 12 -12 3 3 0 11 -7 18 -10 9 -11 8 -5 -6z"/>
<path d="M4016 3737 c3 -10 9 -15 12 -12 3 3 0 11 -7 18 -10 9 -11 8 -5 -6z"/>
<path d="M4031 3694 c0 -11 3 -14 6 -6 3 7 2 16 -1 19 -3 4 -6 -2 -5 -13z"/>
<path d="M4036 3655 c4 -8 8 -15 10 -15 2 0 4 7 4 15 0 8 -4 15 -10 15 -5 0
-7 -7 -4 -15z"/>
<path d="M4042 3610 c0 -14 2 -19 5 -12 2 6 2 18 0 25 -3 6 -5 1 -5 -13z"/>
<path d="M4030 3568 c0 -7 -3 -24 -7 -38 -9 -36 6 -19 17 19 5 19 5 31 -1 31
-5 0 -9 -6 -9 -12z"/>
<path d="M3998 3472 c-9 -15 -38 -49 -64 -75 -27 -26 -45 -47 -41 -47 21 0
137 134 125 145 -2 2 -11 -8 -20 -23z"/>
<path d="M3854 3334 c-18 -14 -18 -15 4 -4 12 6 22 13 22 15 0 8 -5 6 -26 -11z"/>
<path d="M3785 3304 l-30 -15 30 6 c17 4 34 11 40 16 13 13 -5 10 -40 -7z"/>
<path d="M3725 3280 c-3 -5 -2 -10 4 -10 5 0 13 5 16 10 3 6 2 10 -4 10 -5 0
-13 -4 -16 -10z"/>
<path d="M2100 4026 c0 -2 7 -6 15 -10 8 -3 15 -1 15 4 0 6 -7 10 -15 10 -8 0
-15 -2 -15 -4z"/>
<path d="M2145 4010 c3 -5 12 -10 18 -10 7 0 36 -16 65 -35 28 -20 52 -32 52
-27 0 8 -121 82 -134 82 -4 0 -4 -4 -1 -10z"/>
<path d="M2290 3924 c0 -6 15 -24 33 -40 17 -17 53 -54 80 -84 26 -30 47 -50
47 -44 0 14 -159 182 -160 168z"/>
<path d="M1981 3864 c0 -11 3 -14 6 -6 3 7 2 16 -1 19 -3 4 -6 -2 -5 -13z"/>
<path d="M1980 3826 c0 -9 5 -16 10 -16 6 0 10 4 10 9 0 6 -4 13 -10 16 -5 3
-10 -1 -10 -9z"/>
<path d="M2490 3702 c0 -4 26 -32 57 -62 l56 -55 -53 63 c-53 62 -60 68 -60
54z"/>
<path d="M2630 3551 c48 -46 140 -115 145 -110 4 4 -151 130 -170 138 -5 2 6
-10 25 -28z"/>
<path d="M2790 3432 c0 -4 28 -24 63 -44 89 -51 127 -70 127 -61 -1 5 -28 21
-62 37 -33 16 -76 40 -94 52 -19 13 -34 20 -34 16z"/>
<path d="M2990 3321 c0 -5 7 -11 15 -15 8 -3 15 -1 15 3 0 5 -7 11 -15 15 -8
3 -15 1 -15 -3z"/>
<path d="M3035 3300 c3 -5 14 -10 23 -10 15 0 15 2 2 10 -20 13 -33 13 -25 0z"/>
<path d="M3090 3281 c22 -13 141 -43 147 -37 3 2 -15 10 -38 16 -24 6 -57 15
-73 20 -36 12 -56 12 -36 1z"/>
<path d="M3255 3240 c3 -5 8 -10 11 -10 2 0 4 5 4 10 0 6 -5 10 -11 10 -5 0
-7 -4 -4 -10z"/>
<path d="M3288 3233 c6 -2 18 -2 25 0 6 3 1 5 -13 5 -14 0 -19 -2 -12 -5z"/>
<path d="M3338 3233 c7 -3 16 -2 19 1 4 3 -2 6 -13 5 -11 0 -14 -3 -6 -6z"/>
<path d="M3370 3230 c0 -5 5 -10 10 -10 6 0 10 5 10 10 0 6 -4 10 -10 10 -5 0
-10 -4 -10 -10z"/>
<path d="M3410 3232 c0 -5 14 -7 30 -4 17 2 30 6 30 8 0 2 -13 4 -30 4 -16 0
-30 -4 -30 -8z"/>
<path d="M2155 3855 c32 -28 85 -59 90 -53 2 2 -24 20 -58 41 -44 26 -53 30
-32 12z"/>
<path d="M2014 3633 c24 -29 124 -98 131 -91 3 3 -14 17 -39 32 -24 14 -51 32
-58 39 -7 6 -22 19 -33 27 -20 14 -20 14 -1 -7z"/>
<path d="M2226 3571 c5 -4 30 -15 56 -25 28 -10 70 -40 108 -77 60 -58 117
-96 127 -85 3 3 -7 10 -23 16 -16 6 -54 35 -84 64 -30 29 -68 62 -85 73 -29
20 -118 50 -99 34z"/>
<path d="M2633 3398 c-18 -6 -33 -15 -33 -19 0 -4 17 -1 38 8 60 24 57 31 -5
11z"/>
<path d="M2530 3380 c0 -5 14 -10 32 -10 36 0 35 4 -4 14 -17 4 -28 2 -28 -4z"/>
<path d="M1756 3455 c-3 -8 -1 -15 3 -15 5 0 11 7 15 15 3 8 1 15 -3 15 -5 0
-11 -7 -15 -15z"/>
<path d="M1730 3415 c-7 -9 -8 -15 -2 -15 5 0 12 7 16 15 3 8 4 15 2 15 -2 0
-9 -7 -16 -15z"/>
<path d="M1707 3383 c-4 -3 -7 -11 -7 -17 0 -6 5 -5 12 2 6 6 9 14 7 17 -3 3
-9 2 -12 -2z"/>
<path d="M1687 3343 c-4 -3 -7 -11 -7 -17 0 -6 5 -5 12 2 6 6 9 14 7 17 -3 3
-9 2 -12 -2z"/>
<path d="M1660 3283 c-27 -58 -40 -93 -35 -93 6 0 57 112 52 116 -2 2 -10 -8
-17 -23z"/>
<path d="M1617 3173 c-4 -3 -7 -11 -7 -17 0 -6 5 -5 12 2 6 6 9 14 7 17 -3 3
-9 2 -12 -2z"/>
<path d="M1593 3103 c-6 -21 -10 -40 -8 -42 7 -6 26 51 23 66 -2 8 -8 -3 -15
-24z"/>
<path d="M1563 3009 c-5 -21 -7 -39 -4 -39 9 0 29 70 22 75 -4 2 -12 -14 -18
-36z"/>
<path d="M1542 2924 c-20 -79 -22 -94 -14 -94 9 0 35 121 27 128 -2 2 -8 -13
-13 -34z"/>
<path d="M1696 2834 c-4 -9 -4 -19 -1 -22 2 -3 7 3 11 12 4 9 4 19 1 22 -2 3
-7 -3 -11 -12z"/>
<path d="M1517 2806 c-4 -10 -5 -21 -2 -24 9 -9 17 6 13 25 -3 17 -4 17 -11
-1z"/>
<path d="M1686 2784 c-4 -9 -4 -19 -1 -22 2 -3 7 3 11 12 4 9 4 19 1 22 -2 3
-7 -3 -11 -12z"/>
<path d="M1506 2755 c-3 -8 -1 -15 4 -15 6 0 10 7 10 15 0 8 -2 15 -4 15 -2 0
-6 -7 -10 -15z"/>
<path d="M1676 2735 c-9 -26 -7 -32 5 -12 6 10 9 21 6 23 -2 3 -7 -2 -11 -11z"/>
<path d="M1536 2723 c-6 -14 -5 -15 5 -6 7 7 10 15 7 18 -3 3 -9 -2 -12 -12z"/>
<path d="M1502 2710 c0 -14 2 -19 5 -12 2 6 2 18 0 25 -3 6 -5 1 -5 -13z"/>
<path d="M1666 2684 c-4 -9 -4 -19 -1 -22 2 -3 7 3 11 12 4 9 4 19 1 22 -2 3
-7 -3 -11 -12z"/>
<path d="M1492 2660 c0 -14 2 -19 5 -12 2 6 2 18 0 25 -3 6 -5 1 -5 -13z"/>
<path d="M1657 2636 c-4 -10 -5 -21 -2 -24 9 -9 17 6 13 25 -3 17 -4 17 -11
-1z"/>
<path d="M1481 2614 c0 -11 3 -14 6 -6 3 7 2 16 -1 19 -3 4 -6 -2 -5 -13z"/>
<path d="M1652 2580 c0 -14 2 -19 5 -12 2 6 2 18 0 25 -3 6 -5 1 -5 -13z"/>
<path d="M1470 2568 c0 -19 2 -20 10 -8 13 19 13 30 0 30 -5 0 -10 -10 -10
-22z"/>
<path d="M1641 2534 c0 -11 3 -14 6 -6 3 7 2 16 -1 19 -3 4 -6 -2 -5 -13z"/>
<path d="M1460 2518 c0 -19 2 -20 10 -8 13 19 13 30 0 30 -5 0 -10 -10 -10
-22z"/>
<path d="M1632 2490 c0 -14 2 -19 5 -12 2 6 2 18 0 25 -3 6 -5 1 -5 -13z"/>
<path d="M1457 2483 c-11 -18 -19 -78 -9 -68 5 6 12 25 15 43 6 30 3 41 -6 25z"/>
<path d="M1615 2424 c-9 -50 -1 -52 12 -4 5 22 7 40 3 40 -4 0 -11 -16 -15
-36z"/>
<path d="M1437 2394 c-4 -4 -7 -14 -7 -23 0 -11 3 -12 11 -4 6 6 10 16 7 23
-2 6 -7 8 -11 4z"/>
<path d="M1601 2354 c0 -11 3 -14 6 -6 3 7 2 16 -1 19 -3 4 -6 -2 -5 -13z"/>
<path d="M1420 2335 c0 -8 5 -15 10 -15 6 0 10 7 10 15 0 8 -4 15 -10 15 -5 0
-10 -7 -10 -15z"/>
<path d="M1586 2315 c-3 -8 -1 -15 4 -15 6 0 10 7 10 15 0 8 -2 15 -4 15 -2 0
-6 -7 -10 -15z"/>
<path d="M1417 2303 c-4 -3 -7 -13 -7 -22 1 -13 3 -13 11 2 11 19 8 33 -4 20z"/>
<path d="M1577 2283 c-4 -3 -7 -13 -7 -22 1 -13 3 -13 11 2 11 19 8 33 -4 20z"/>
<path d="M1396 2245 c-3 -8 -1 -15 4 -15 6 0 10 7 10 15 0 8 -2 15 -4 15 -2 0
-6 -7 -10 -15z"/>
<path d="M1556 2225 c-3 -8 -1 -15 4 -15 6 0 10 7 10 15 0 8 -2 15 -4 15 -2 0
-6 -7 -10 -15z"/>
<path d="M1387 2214 c-4 -4 -7 -14 -7 -23 0 -11 3 -12 11 -4 6 6 10 16 7 23
-2 6 -7 8 -11 4z"/>
<path d="M1547 2193 c-4 -3 -7 -13 -7 -22 1 -13 3 -13 11 2 11 19 8 33 -4 20z"/>
<path d="M1366 2155 c-3 -8 -1 -15 3 -15 5 0 11 7 15 15 3 8 1 15 -3 15 -5 0
-11 -7 -15 -15z"/>
<path d="M1527 2143 c-4 -3 -7 -13 -7 -22 1 -13 3 -13 11 2 11 19 8 33 -4 20z"/>
<path d="M1346 2095 c-18 -43 -19 -45 -8 -45 8 0 33 72 27 78 -2 3 -11 -13
-19 -33z"/>
<path d="M1506 2085 c-3 -8 -1 -15 4 -15 6 0 10 7 10 15 0 8 -2 15 -4 15 -2 0
-6 -7 -10 -15z"/>
<path d="M1490 2040 c-6 -11 -7 -20 -2 -20 6 0 12 9 15 20 3 11 3 20 1 20 -2
0 -8 -9 -14 -20z"/>
<path d="M1320 2025 c0 -8 2 -15 4 -15 2 0 6 7 10 15 3 8 1 15 -4 15 -6 0 -10
-7 -10 -15z"/>
<path d="M1470 1995 c0 -8 2 -15 4 -15 2 0 6 7 10 15 3 8 1 15 -4 15 -6 0 -10
-7 -10 -15z"/>
<path d="M1307 1993 c-4 -3 -7 -13 -7 -22 1 -13 3 -13 11 2 11 19 8 33 -4 20z"/>
<path d="M1447 1929 c-15 -38 -31 -97 -24 -89 3 3 15 29 26 59 22 60 21 84 -2
30z"/>
<path d="M1290 1935 c0 -8 2 -15 4 -15 2 0 6 7 10 15 3 8 1 15 -4 15 -6 0 -10
-7 -10 -15z"/>
<path d="M1276 1895 c-3 -8 -1 -15 4 -15 6 0 10 7 10 15 0 8 -2 15 -4 15 -2 0
-6 -7 -10 -15z"/>
<path d="M1267 1863 c-8 -14 -19 -73 -13 -73 6 0 27 72 22 78 -2 2 -6 0 -9 -5z"/>
<path d="M1410 1810 c0 -11 2 -20 4 -20 2 0 6 9 9 20 3 11 1 20 -4 20 -5 0 -9
-9 -9 -20z"/>
<path d="M1235 1725 c-10 -76 0 -80 12 -5 5 33 6 60 2 60 -4 0 -11 -25 -14
-55z"/>
<path d="M1401 1764 c0 -11 3 -14 6 -6 3 7 2 16 -1 19 -3 4 -6 -2 -5 -13z"/>
<path d="M1392 1720 c0 -14 2 -19 5 -12 2 6 2 18 0 25 -3 6 -5 1 -5 -13z"/>
<path d="M1381 1674 c0 -11 3 -14 6 -6 3 7 2 16 -1 19 -3 4 -6 -2 -5 -13z"/>
<path d="M1220 1615 c0 -19 2 -35 4 -35 2 0 6 16 8 35 2 19 0 35 -4 35 -4 0
-8 -16 -8 -35z"/>
<path d="M1370 1624 c0 -8 5 -12 10 -9 6 3 10 10 10 16 0 5 -4 9 -10 9 -5 0
-10 -7 -10 -16z"/>
<path d="M1372 1580 c0 -14 2 -19 5 -12 2 6 2 18 0 25 -3 6 -5 1 -5 -13z"/>
<path d="M1215 1557 c-4 -10 -5 -21 -1 -24 10 -10 18 4 13 24 -4 17 -4 17 -12
0z"/>
<path d="M1360 1535 c0 -8 5 -15 10 -15 6 0 10 7 10 15 0 8 -4 15 -10 15 -5 0
-10 -7 -10 -15z"/>
<path d="M1210 1499 c0 -11 5 -17 10 -14 6 3 10 13 10 21 0 8 -4 14 -10 14 -5
0 -10 -9 -10 -21z"/>
<path d="M1362 1490 c0 -14 2 -19 5 -12 2 6 2 18 0 25 -3 6 -5 1 -5 -13z"/>
<path d="M1210 1455 c0 -8 5 -15 10 -15 6 0 10 7 10 15 0 8 -4 15 -10 15 -5 0
-10 -7 -10 -15z"/>
<path d="M1363 1420 c0 -25 2 -35 4 -22 2 12 2 32 0 45 -2 12 -4 2 -4 -23z"/>
<path d="M1216 1422 c-2 -4 -1 -14 5 -22 7 -12 9 -10 9 8 0 23 -5 28 -14 14z"/>
<path d="M1222 1360 c0 -14 2 -19 5 -12 2 6 2 18 0 25 -3 6 -5 1 -5 -13z"/>
<path d="M1368 1335 c2 -19 6 -35 8 -35 2 0 4 16 4 35 0 19 -4 35 -8 35 -4 0
-6 -16 -4 -35z"/>
<path d="M1231 1314 c0 -11 3 -14 6 -6 3 7 2 16 -1 19 -3 4 -6 -2 -5 -13z"/>
<path d="M1230 1281 c0 -6 5 -13 10 -16 6 -3 10 1 10 9 0 9 -4 16 -10 16 -5 0
-10 -4 -10 -9z"/>
<path d="M1246 1237 c3 -10 9 -15 12 -12 3 3 0 11 -7 18 -10 9 -11 8 -5 -6z"/>
<path d="M1261 1194 c0 -11 3 -14 6 -6 3 7 2 16 -1 19 -3 4 -6 -2 -5 -13z"/>
<path d="M1270 1161 c0 -5 5 -13 10 -16 6 -3 10 -2 10 4 0 5 -4 13 -10 16 -5
3 -10 2 -10 -4z"/>
<path d="M2374 3348 c-61 -67 -109 -129 -138 -179 -29 -51 -31 -59 -15 -59 15
0 132 81 125 87 -3 3 -28 -11 -57 -31 -28 -21 -53 -36 -55 -33 -7 7 72 118
132 185 31 35 54 65 52 68 -3 2 -23 -15 -44 -38z"/>
<path d="M2020 3333 c-14 -20 -64 -77 -112 -126 -48 -50 -86 -93 -83 -95 7 -8
165 156 199 206 16 23 27 44 25 47 -3 2 -16 -12 -29 -32z"/>
<path d="M2112 2790 c0 -14 2 -19 5 -12 2 6 2 18 0 25 -3 6 -5 1 -5 -13z"/>
<path d="M2392 2600 c0 -14 2 -19 5 -12 2 6 2 18 0 25 -3 6 -5 1 -5 -13z"/>
<path d="M1842 2465 c0 -16 2 -22 5 -12 2 9 2 23 0 30 -3 6 -5 -1 -5 -18z"/>
<path d="M3786 3172 c-3 -5 1 -9 9 -9 8 0 12 4 9 9 -3 4 -7 8 -9 8 -2 0 -6 -4
-9 -8z"/>
<path d="M3651 3274 c0 -11 3 -14 6 -6 3 7 2 16 -1 19 -3 4 -6 -2 -5 -13z"/>
<path d="M3651 3204 c0 -11 3 -14 6 -6 3 7 2 16 -1 19 -3 4 -6 -2 -5 -13z"/>
<path d="M3341 3024 c0 -11 3 -14 6 -6 3 7 2 16 -1 19 -3 4 -6 -2 -5 -13z"/>
<path d="M2872 2930 c0 -14 2 -19 5 -12 2 6 2 18 0 25 -3 6 -5 1 -5 -13z"/>
<path d="M3550 3171 c0 -6 4 -13 10 -16 6 -3 7 1 4 9 -7 18 -14 21 -14 7z"/>
<path d="M3690 2971 c0 -5 5 -13 10 -16 6 -3 10 -2 10 4 0 5 -4 13 -10 16 -5
3 -10 2 -10 -4z"/>
<path d="M3781 2674 c0 -11 3 -14 6 -6 3 7 2 16 -1 19 -3 4 -6 -2 -5 -13z"/>
<path d="M3791 2634 c0 -11 3 -14 6 -6 3 7 2 16 -1 19 -3 4 -6 -2 -5 -13z"/>
<path d="M3801 2594 c0 -11 3 -14 6 -6 3 7 2 16 -1 19 -3 4 -6 -2 -5 -13z"/>
<path d="M3841 2354 c0 -11 3 -14 6 -6 3 7 2 16 -1 19 -3 4 -6 -2 -5 -13z"/>
<path d="M3621 2934 c0 -11 3 -14 6 -6 3 7 2 16 -1 19 -3 4 -6 -2 -5 -13z"/>
<path d="M3641 2614 c0 -11 3 -14 6 -6 3 7 2 16 -1 19 -3 4 -6 -2 -5 -13z"/>
<path d="M3661 2444 c0 -11 3 -14 6 -6 3 7 2 16 -1 19 -3 4 -6 -2 -5 -13z"/>
<path d="M3700 2181 c0 -5 5 -13 10 -16 6 -3 10 -2 10 4 0 5 -4 13 -10 16 -5
3 -10 2 -10 -4z"/>
<path d="M3720 2101 c0 -6 4 -13 10 -16 6 -3 7 1 4 9 -7 18 -14 21 -14 7z"/>
<path d="M3976 2513 c13 -20 29 -54 34 -77 47 -190 52 -197 130 -195 l45 2
-48 6 c-26 4 -54 14 -63 23 -9 8 -26 58 -39 111 -23 95 -48 152 -71 161 -7 3
-2 -11 12 -31z"/>
<path d="M4381 2530 c0 -8 4 -24 9 -35 5 -13 9 -14 9 -5 0 8 -4 24 -9 35 -5
13 -9 14 -9 5z"/>
<path d="M4401 2454 c0 -11 3 -14 6 -6 3 7 2 16 -1 19 -3 4 -6 -2 -5 -13z"/>
<path d="M4408 2393 c6 -65 10 -70 11 -15 0 28 -3 52 -7 52 -4 0 -6 -17 -4
-37z"/>
<path d="M4222 2394 c-28 -19 -29 -67 -2 -94 25 -25 42 -25 65 0 24 27 22 70
-5 92 -27 22 -30 22 -58 2z m56 -16 c25 -25 8 -78 -25 -78 -7 0 -20 11 -28 24
-29 43 18 89 53 54z"/>
<path d="M4370 2299 c-27 -15 -30 -19 -14 -19 11 0 29 9 39 20 21 23 21 23
-25 -1z"/>
<path d="M4305 2280 c-11 -5 -32 -9 -47 -9 -16 -1 -28 -5 -28 -10 0 -4 23 -4
50 2 28 5 50 14 50 18 0 5 -1 9 -2 8 -2 0 -12 -4 -23 -9z"/>
<path d="M4190 2250 c0 -5 7 -7 15 -4 8 4 15 8 15 10 0 2 -7 4 -15 4 -8 0 -15
-4 -15 -10z"/>
<path d="M3560 2486 c0 -2 7 -9 15 -16 13 -11 14 -10 9 4 -5 14 -24 23 -24 12z"/>
<path d="M3592 2445 c0 -5 6 -26 13 -45 7 -19 14 -28 14 -20 0 8 -6 29 -14 45
-7 17 -13 26 -13 20z"/>
<path d="M3620 2327 c0 -20 4 -37 10 -37 5 0 7 14 3 33 -8 45 -13 47 -13 4z"/>
<path d="M3252 2320 c0 -14 2 -19 5 -12 2 6 2 18 0 25 -3 6 -5 1 -5 -13z"/>
<path d="M3135 2255 c10 -73 34 -125 62 -136 29 -11 128 -10 163 1 15 5 -6 7
-55 4 -55 -4 -88 -1 -105 8 -24 13 -42 58 -54 129 -2 17 -8 34 -12 37 -3 4 -3
-15 1 -43z"/>
<path d="M3366 2258 c-9 -12 -16 -29 -16 -38 0 -9 7 -26 16 -38 23 -33 73 -27
94 11 13 24 13 30 0 55 -21 37 -71 43 -94 10z m72 0 c19 -19 15 -66 -7 -78
-25 -13 -27 -13 -45 6 -30 29 -14 84 24 84 9 0 21 -5 28 -12z"/>
<path d="M3632 2250 c0 -19 2 -27 5 -17 2 9 2 25 0 35 -3 9 -5 1 -5 -18z"/>
<path d="M3601 2183 c-13 -13 -20 -23 -14 -23 15 0 46 26 42 36 -2 5 -15 -1
-28 -13z"/>
<path d="M3470 2140 c0 -5 7 -7 15 -4 8 4 15 8 15 10 0 2 -7 4 -15 4 -8 0 -15
-4 -15 -10z"/>
<path d="M3518 2143 c7 -3 16 -2 19 1 4 3 -2 6 -13 5 -11 0 -14 -3 -6 -6z"/>
<path d="M3390 2130 c0 -5 7 -10 15 -10 8 0 15 5 15 10 0 6 -7 10 -15 10 -8 0
-15 -4 -15 -10z"/>
<path d="M3438 2133 c7 -3 16 -2 19 1 4 3 -2 6 -13 5 -11 0 -14 -3 -6 -6z"/>
<path d="M3910 2440 c8 -5 24 -10 34 -10 26 0 18 6 -19 14 -22 5 -26 4 -15 -4z"/>
<path d="M3903 2375 c0 -33 2 -45 4 -27 2 18 2 45 0 60 -2 15 -4 0 -4 -33z"/>
<path d="M3975 2275 c3 -38 8 -130 11 -203 4 -73 10 -129 15 -125 9 10 -8 292
-21 353 -9 41 -9 39 -5 -25z"/>
<path d="M3906 2295 c4 -8 8 -15 10 -15 2 0 4 7 4 15 0 8 -4 15 -10 15 -5 0
-7 -7 -4 -15z"/>
<path d="M3911 2254 c0 -11 3 -14 6 -6 3 7 2 16 -1 19 -3 4 -6 -2 -5 -13z"/>
<path d="M3911 2214 c0 -11 3 -14 6 -6 3 7 2 16 -1 19 -3 4 -6 -2 -5 -13z"/>
<path d="M3912 2170 c0 -14 2 -19 5 -12 2 6 2 18 0 25 -3 6 -5 1 -5 -13z"/>
<path d="M3910 2125 c0 -8 4 -15 10 -15 5 0 7 7 4 15 -4 8 -8 15 -10 15 -2 0
-4 -7 -4 -15z"/>
<path d="M3921 2084 c0 -11 3 -14 6 -6 3 7 2 16 -1 19 -3 4 -6 -2 -5 -13z"/>
<path d="M3921 2044 c0 -11 3 -14 6 -6 3 7 2 16 -1 19 -3 4 -6 -2 -5 -13z"/>
<path d="M4094 2011 c7 -10 -50 -65 -89 -85 -27 -14 -28 -16 -8 -16 30 0 128
96 107 104 -8 3 -13 2 -10 -3z"/>
<path d="M3023 2333 c9 -2 25 -2 35 0 9 3 1 5 -18 5 -19 0 -27 -2 -17 -5z"/>
<path d="M3010 2301 c0 -6 5 -13 10 -16 6 -3 10 1 10 9 0 9 -4 16 -10 16 -5 0
-10 -4 -10 -9z"/>
<path d="M3023 2220 c0 -30 2 -43 4 -27 2 15 2 39 0 55 -2 15 -4 2 -4 -28z"/>
<path d="M3094 2095 c3 -44 9 -126 12 -182 4 -57 11 -103 16 -103 8 0 5 60
-13 250 -12 123 -25 152 -15 35z"/>
<path d="M3020 2150 c0 -5 5 -10 10 -10 6 0 10 5 10 10 0 6 -4 10 -10 10 -5 0
-10 -4 -10 -10z"/>
<path d="M3028 2123 c-2 -5 -1 -24 3 -43 l6 -35 2 43 c1 39 -3 52 -11 35z"/>
<path d="M3030 2005 c0 -19 4 -35 8 -35 4 0 6 16 4 35 -2 19 -6 35 -8 35 -2 0
-4 -16 -4 -35z"/>
<path d="M3543 1905 c0 -33 2 -45 4 -27 2 18 2 45 0 60 -2 15 -4 0 -4 -33z"/>
<path d="M3030 1941 c0 -6 5 -13 10 -16 6 -3 10 1 10 9 0 9 -4 16 -10 16 -5 0
-10 -4 -10 -9z"/>
<path d="M3043 1855 c0 -33 2 -45 4 -27 2 18 2 45 0 60 -2 15 -4 0 -4 -33z"/>
<path d="M3185 1829 c-4 -6 -25 -24 -47 -40 -23 -16 -38 -29 -35 -29 3 0 13
-3 22 -6 9 -4 15 -2 13 2 -2 5 15 26 37 46 22 21 35 38 28 38 -6 0 -15 -5 -18
-11z"/>
<path d="M1686 2132 c12 -11 64 -33 64 -27 0 5 -56 35 -67 35 -4 0 -3 -4 3 -8z"/>
<path d="M1760 2101 c0 -10 50 -25 57 -18 2 3 -10 9 -26 15 -17 6 -31 7 -31 3z"/>
<path d="M2684 2085 c3 -21 16 -31 16 -12 0 9 -4 18 -9 21 -5 4 -8 -1 -7 -9z"/>
<path d="M1860 2066 c19 -7 37 -12 39 -10 8 7 -6 14 -40 19 l-34 5 35 -14z"/>
<path d="M1918 2053 c7 -3 16 -2 19 1 4 3 -2 6 -13 5 -11 0 -14 -3 -6 -6z"/>
<path d="M1958 2043 c7 -3 16 -2 19 1 4 3 -2 6 -13 5 -11 0 -14 -3 -6 -6z"/>
<path d="M2670 2039 c-13 -9 -13 -10 2 -6 9 3 19 1 22 -6 2 -7 5 -4 5 6 1 20
-7 21 -29 6z"/>
<path d="M1998 2033 c6 -2 18 -2 25 0 6 3 1 5 -13 5 -14 0 -19 -2 -12 -5z"/>
<path d="M2040 2030 c0 -6 7 -10 15 -10 8 0 15 2 15 4 0 2 -7 6 -15 10 -8 3
-15 1 -15 -4z"/>
<path d="M2603 2033 c-13 -2 -23 -8 -23 -12 0 -10 59 -1 66 10 5 9 -4 10 -43
2z"/>
<path d="M2080 2020 c0 -5 7 -10 16 -10 8 0 12 5 9 10 -3 6 -10 10 -16 10 -5
0 -9 -4 -9 -10z"/>
<path d="M2120 2016 c0 -2 7 -6 15 -10 8 -3 15 -1 15 4 0 6 -7 10 -15 10 -8 0
-15 -2 -15 -4z"/>
<path d="M2540 2010 c0 -5 7 -7 15 -4 8 4 15 8 15 10 0 2 -7 4 -15 4 -8 0 -15
-4 -15 -10z"/>
<path d="M2178 2003 c7 -3 16 -2 19 1 4 3 -2 6 -13 5 -11 0 -14 -3 -6 -6z"/>
<path d="M2210 2000 c0 -5 7 -10 15 -10 8 0 15 5 15 10 0 6 -7 10 -15 10 -8 0
-15 -4 -15 -10z"/>
<path d="M2250 2000 c0 -6 7 -10 15 -10 8 0 15 2 15 4 0 2 -7 6 -15 10 -8 3
-15 1 -15 -4z"/>
<path d="M2425 2000 l-50 -7 58 -1 c32 -1 57 2 57 8 0 6 -3 9 -7 8 -5 0 -30
-4 -58 -8z"/>
<path d="M2508 2003 c7 -3 16 -2 19 1 4 3 -2 6 -13 5 -11 0 -14 -3 -6 -6z"/>
<path d="M2298 1993 c7 -3 16 -2 19 1 4 3 -2 6 -13 5 -11 0 -14 -3 -6 -6z"/>
<path d="M2338 1993 c6 -2 18 -2 25 0 6 3 1 5 -13 5 -14 0 -19 -2 -12 -5z"/>
<path d="M2688 1938 c-2 -7 -1 -35 3 -63 l6 -50 1 63 c2 59 -1 76 -10 50z"/>
<path d="M2689 1813 c0 -5 -2 -20 -4 -35 -2 -15 1 -30 6 -33 5 -4 9 12 9 34 0
23 -2 41 -5 41 -3 0 -5 -3 -6 -7z"/>
<path d="M2680 1715 c0 -8 5 -15 10 -15 6 0 10 7 10 15 0 8 -4 15 -10 15 -5 0
-10 -7 -10 -15z"/>
<path d="M2683 1665 c0 -8 4 -15 9 -15 4 0 8 7 8 15 0 8 -4 15 -8 15 -5 0 -9
-7 -9 -15z"/>
<path d="M2685 1627 c-4 -10 -5 -21 -1 -24 10 -10 18 4 13 24 -4 17 -4 17 -12
0z"/>
<path d="M2680 1575 c0 -8 5 -15 10 -15 6 0 10 7 10 15 0 8 -4 15 -10 15 -5 0
-10 -7 -10 -15z"/>
<path d="M2684 1514 c7 -51 16 -55 16 -6 0 23 -5 42 -10 42 -6 0 -8 -16 -6
-36z"/>
<path d="M2691 1444 c0 -11 3 -14 6 -6 3 7 2 16 -1 19 -3 4 -6 -2 -5 -13z"/>
<path d="M2512 1430 c0 -14 2 -19 5 -12 2 6 2 18 0 25 -3 6 -5 1 -5 -13z"/>
<path d="M2688 1365 c-1 -30 0 -55 5 -55 4 0 7 25 7 55 0 71 -7 71 -12 0z"/>
<path d="M1720 1338 c0 -3 11 -39 25 -81 24 -73 65 -155 65 -129 0 7 -6 23
-14 35 -7 12 -24 54 -37 92 -20 61 -39 101 -39 83z"/>
<path d="M2680 1285 c0 -8 5 -15 10 -15 6 0 10 7 10 15 0 8 -4 15 -10 15 -5 0
-10 -7 -10 -15z"/>
<path d="M2680 1235 c0 -8 5 -15 10 -15 6 0 10 7 10 15 0 8 -4 15 -10 15 -5 0
-10 -7 -10 -15z"/>
<path d="M2680 1191 c0 -25 6 -27 13 -6 4 8 2 17 -3 20 -6 4 -10 -3 -10 -14z"/>
<path d="M2682 1140 c0 -14 2 -19 5 -12 2 6 2 18 0 25 -3 6 -5 1 -5 -13z"/>
<path d="M2682 1090 c0 -14 2 -19 5 -12 2 6 2 18 0 25 -3 6 -5 1 -5 -13z"/>
<path d="M2683 1020 c0 -25 2 -35 4 -22 2 12 2 32 0 45 -2 12 -4 2 -4 -23z"/>
<path d="M2360 1017 c0 -4 11 -37 25 -73 30 -80 76 -163 105 -189 13 -12 6 7
-20 49 -23 37 -54 99 -69 137 -26 64 -41 92 -41 76z"/>
<path d="M2682 950 c0 -14 2 -19 5 -12 2 6 2 18 0 25 -3 6 -5 1 -5 -13z"/>
<path d="M2681 904 c0 -11 3 -14 6 -6 3 7 2 16 -1 19 -3 4 -6 -2 -5 -13z"/>
<path d="M2683 840 c0 -25 2 -35 4 -22 2 12 2 32 0 45 -2 12 -4 2 -4 -23z"/>
<path d="M2681 775 c0 -11 -4 -31 -7 -45 -5 -19 -4 -22 5 -14 7 6 11 26 8 45
-2 19 -5 25 -6 14z"/>
<path d="M2664 665 l-10 -40 -84 0 c-47 0 -100 3 -117 7 -19 4 -33 4 -33 -2 0
-13 65 -25 142 -25 36 0 64 -4 61 -8 -3 -5 4 -4 15 2 21 11 47 72 39 94 -2 6
-8 -6 -13 -28z"/>
<path d="M4130 1776 c0 -2 9 -6 20 -9 11 -3 20 -1 20 4 0 5 -9 9 -20 9 -11 0
-20 -2 -20 -4z"/>
<path d="M4105 1760 c3 -5 14 -10 23 -10 15 0 15 2 2 10 -20 13 -33 13 -25 0z"/>
<path d="M4005 1740 c27 -12 43 -12 25 0 -8 5 -22 9 -30 9 -10 0 -8 -3 5 -9z"/>
<path d="M3875 1721 c-3 -5 -2 -12 3 -15 5 -3 9 1 9 9 0 17 -3 19 -12 6z"/>
<path d="M3900 1726 c0 -2 7 -7 16 -10 8 -3 12 -2 9 4 -6 10 -25 14 -25 6z"/>
<path d="M3988 1723 c7 -3 16 -2 19 1 4 3 -2 6 -13 5 -11 0 -14 -3 -6 -6z"/>
<path d="M3788 1703 c7 -3 16 -2 19 1 4 3 -2 6 -13 5 -11 0 -14 -3 -6 -6z"/>
<path d="M3710 1690 c-9 -6 -10 -10 -3 -10 6 0 15 5 18 10 8 12 4 12 -15 0z"/>
<path d="M3788 1683 c6 -2 18 -2 25 0 6 3 1 5 -13 5 -14 0 -19 -2 -12 -5z"/>
<path d="M3628 1673 c7 -3 16 -2 19 1 4 3 -2 6 -13 5 -11 0 -14 -3 -6 -6z"/>
<path d="M3595 1660 c11 -5 29 -8 40 -8 16 0 15 2 -5 8 -34 11 -60 11 -35 0z"/>
<path d="M3538 1653 c7 -3 16 -2 19 1 4 3 -2 6 -13 5 -11 0 -14 -3 -6 -6z"/>
<path d="M3455 1640 c-3 -6 1 -7 9 -4 18 7 21 14 7 14 -6 0 -13 -4 -16 -10z"/>
<path d="M3578 1643 c7 -3 16 -2 19 1 4 3 -2 6 -13 5 -11 0 -14 -3 -6 -6z"/>
<path d="M3418 1633 c7 -3 16 -2 19 1 4 3 -2 6 -13 5 -11 0 -14 -3 -6 -6z"/>
<path d="M3490 1630 c-23 -7 -23 -8 -3 -9 12 -1 25 4 28 9 3 6 5 10 3 9 -2 -1
-14 -5 -28 -9z"/>
<path d="M3538 1633 c7 -3 16 -2 19 1 4 3 -2 6 -13 5 -11 0 -14 -3 -6 -6z"/>
<path d="M3378 1623 c7 -3 16 -2 19 1 4 3 -2 6 -13 5 -11 0 -14 -3 -6 -6z"/>
<path d="M3290 1610 c-13 -8 -12 -10 3 -10 9 0 17 5 17 10 0 12 -1 12 -20 0z"/>
<path d="M3393 1609 c-18 -5 -33 -12 -33 -14 0 -8 53 6 65 16 10 10 11 10 -32
-2z"/>
<path d="M3250 1600 c-9 -6 -10 -10 -3 -10 6 0 15 5 18 10 8 12 4 12 -15 0z"/>
<path d="M3210 1590 c-13 -8 -12 -10 3 -10 9 0 17 5 17 10 0 12 -1 12 -20 0z"/>
<path d="M3300 1580 c-9 -6 -10 -10 -3 -10 6 0 15 5 18 10 8 12 4 12 -15 0z"/>
<path d="M3117 1550 c-71 -44 -106 -115 -121 -244 -9 -77 4 -47 20 44 8 45 21
94 28 108 20 37 64 78 111 101 22 11 33 20 24 21 -8 0 -36 -13 -62 -30z"/>
<path d="M3258 1573 c-10 -2 -18 -8 -18 -13 0 -4 9 -6 20 -3 11 3 20 9 20 14
0 5 -1 8 -2 8 -2 -1 -11 -3 -20 -6z"/>
<path d="M3150 1509 c0 -5 5 -7 10 -4 6 3 10 8 10 11 0 2 -4 4 -10 4 -5 0 -10
-5 -10 -11z"/>
<path d="M3120 1485 c-8 -9 -8 -15 -2 -15 12 0 26 19 19 26 -2 2 -10 -2 -17
-11z"/>
<path d="M3091 1442 c-17 -31 -13 -40 5 -14 9 13 14 26 11 29 -3 2 -10 -4 -16
-15z"/>
<path d="M3053 1355 c-6 -25 -7 -45 -3 -45 4 0 11 20 17 45 6 25 7 45 3 45 -4
0 -11 -20 -17 -45z"/>
<path d="M3041 1284 c0 -11 3 -14 6 -6 3 7 2 16 -1 19 -3 4 -6 -2 -5 -13z"/>
<path d="M3030 1245 c0 -8 5 -15 10 -15 6 0 10 7 10 15 0 8 -4 15 -10 15 -5 0
-10 -7 -10 -15z"/>
<path d="M2991 1234 c0 -11 3 -14 6 -6 3 7 2 16 -1 19 -3 4 -6 -2 -5 -13z"/>
<path d="M3031 1204 c0 -11 3 -14 6 -6 3 7 2 16 -1 19 -3 4 -6 -2 -5 -13z"/>
<path d="M2991 1194 c0 -11 3 -14 6 -6 3 7 2 16 -1 19 -3 4 -6 -2 -5 -13z"/>
<path d="M3033 1120 c0 -36 2 -50 4 -32 2 17 2 47 0 65 -2 17 -4 3 -4 -33z"/>
<path d="M2992 1150 c0 -14 2 -19 5 -12 2 6 2 18 0 25 -3 6 -5 1 -5 -13z"/>
<path d="M2993 1080 c0 -25 2 -35 4 -22 2 12 2 32 0 45 -2 12 -4 2 -4 -23z"/>
<path d="M3033 1010 c0 -25 2 -35 4 -22 2 12 2 32 0 45 -2 12 -4 2 -4 -23z"/>
<path d="M2992 1010 c0 -14 2 -19 5 -12 2 6 2 18 0 25 -3 6 -5 1 -5 -13z"/>
<path d="M3031 944 c0 -11 3 -14 6 -6 3 7 2 16 -1 19 -3 4 -6 -2 -5 -13z"/>
<path d="M4358 1703 c7 -3 16 -2 19 1 4 3 -2 6 -13 5 -11 0 -14 -3 -6 -6z"/>
<path d="M4238 1673 c7 -3 16 -2 19 1 4 3 -2 6 -13 5 -11 0 -14 -3 -6 -6z"/>
<path d="M4165 1660 c-25 -11 1 -11 35 0 20 6 21 8 5 8 -11 0 -29 -3 -40 -8z"/>
<path d="M4095 1644 c-40 -14 -40 -14 -5 -9 19 3 39 10 44 15 12 12 12 12 -39
-6z"/>
<path d="M4028 1623 c7 -3 16 -2 19 1 4 3 -2 6 -13 5 -11 0 -14 -3 -6 -6z"/>
<path d="M3940 1613 c-40 -7 -44 -19 -5 -15 19 2 35 8 35 13 0 5 -1 8 -2 8 -2
-1 -14 -4 -28 -6z"/>
<path d="M3988 1613 c7 -3 16 -2 19 1 4 3 -2 6 -13 5 -11 0 -14 -3 -6 -6z"/>
<path d="M3820 1579 c0 -5 5 -7 10 -4 6 3 10 8 10 11 0 2 -4 4 -10 4 -5 0 -10
-5 -10 -11z"/>
<path d="M3788 1573 c7 -3 16 -2 19 1 4 3 -2 6 -13 5 -11 0 -14 -3 -6 -6z"/>
<path d="M3710 1560 c0 -5 7 -7 15 -4 8 4 15 8 15 10 0 2 -7 4 -15 4 -8 0 -15
-4 -15 -10z"/>
<path d="M3660 1551 c0 -5 9 -7 20 -4 11 3 20 7 20 9 0 2 -9 4 -20 4 -11 0
-20 -4 -20 -9z"/>
<path d="M3628 1543 c7 -3 16 -2 19 1 4 3 -2 6 -13 5 -11 0 -14 -3 -6 -6z"/>
<path d="M3578 1533 c6 -2 18 -2 25 0 6 3 1 5 -13 5 -14 0 -19 -2 -12 -5z"/>
<path d="M3500 1520 c-13 -8 -12 -10 3 -10 9 0 17 5 17 10 0 12 -1 12 -20 0z"/>
<path d="M3538 1523 c7 -3 16 -2 19 1 4 3 -2 6 -13 5 -11 0 -14 -3 -6 -6z"/>
<path d="M3435 1504 l-40 -13 40 6 c40 6 52 10 44 17 -2 2 -22 -3 -44 -10z"/>
<path d="M3340 1475 c-33 -19 -21 -19 21 0 19 8 27 14 19 14 -8 0 -26 -6 -40
-14z"/>
<path d="M3176 1235 c-3 -8 -1 -15 4 -15 6 0 10 7 10 15 0 8 -2 15 -4 15 -2 0
-6 -7 -10 -15z"/>
<path d="M3171 1194 c0 -11 3 -14 6 -6 3 7 2 16 -1 19 -3 4 -6 -2 -5 -13z"/>
<path d="M3171 1154 c0 -11 3 -14 6 -6 3 7 2 16 -1 19 -3 4 -6 -2 -5 -13z"/>
<path d="M3172 1110 c0 -14 2 -19 5 -12 2 6 2 18 0 25 -3 6 -5 1 -5 -13z"/>
<path d="M3171 1064 c0 -11 3 -14 6 -6 3 7 2 16 -1 19 -3 4 -6 -2 -5 -13z"/>
<path d="M3171 1024 c0 -11 3 -14 6 -6 3 7 2 16 -1 19 -3 4 -6 -2 -5 -13z"/>
<path d="M3173 960 c0 -25 2 -35 4 -22 2 12 2 32 0 45 -2 12 -4 2 -4 -23z"/>
<path d="M3171 894 c0 -11 3 -14 6 -6 3 7 2 16 -1 19 -3 4 -6 -2 -5 -13z"/>
<path d="M4007 1683 c-10 -9 -9 -23 1 -23 5 0 9 7 9 15 0 17 -1 18 -10 8z"/>
<path d="M4225 1605 c-228 -59 -303 -76 -590 -130 -217 -42 -272 -62 -320
-117 -53 -62 -57 -97 -58 -515 -2 -366 -1 -379 19 -418 15 -28 32 -44 59 -54
53 -20 124 -6 380 74 116 37 305 93 420 125 335 93 364 108 405 202 22 51 24
70 33 412 8 325 7 363 -8 403 -18 47 -54 73 -102 73 -15 0 -122 -25 -238 -55z
m305 11 c12 -14 26 -44 30 -68 13 -70 -6 -685 -23 -740 -33 -108 -72 -132
-319 -198 -185 -50 -405 -116 -592 -176 -164 -53 -261 -66 -301 -40 -53 35
-55 52 -52 473 2 385 2 388 26 436 26 53 71 89 141 112 25 8 144 33 265 55
121 23 330 70 465 105 279 72 325 77 360 41z"/>
<path d="M3565 1589 c-10 -15 3 -25 16 -12 7 7 7 13 1 17 -6 3 -14 1 -17 -5z"/>
<path d="M3513 1575 c0 -7 6 -12 14 -11 19 3 21 19 2 21 -9 2 -16 -3 -16 -10z"/>
<path d="M3136 1424 c-2 -6 0 -16 6 -22 7 -7 2 -19 -18 -37 -23 -21 -25 -28
-14 -35 8 -5 17 -7 20 -5 3 2 7 -6 7 -17 2 -19 1 -19 -16 -4 -25 23 -28 21
-35 -30 -4 -33 -2 -50 8 -60 12 -11 15 -11 20 2 8 21 8 24 -5 24 -5 0 -7 -6
-3 -12 4 -7 3 -9 -1 -5 -15 13 -15 39 1 33 7 -3 13 -2 13 2 -3 20 2 31 14 27
14 -5 59 123 45 131 -5 3 -6 9 -4 13 3 3 -4 7 -14 7 -11 0 -22 -6 -24 -12z
m28 -12 c7 -12 -5 -52 -16 -52 -5 0 -4 10 3 21 9 17 8 23 -2 30 -10 6 -10 9
-2 9 6 0 14 -4 17 -8z m-14 -66 c0 -9 -30 -14 -35 -6 -4 6 3 10 14 10 12 0 21
-2 21 -4z m-35 -46 c3 -5 1 -10 -4 -10 -6 0 -11 5 -11 10 0 6 2 10 4 10 3 0 8
-4 11 -10z"/>
<path d="M1635 1049 c-10 -15 3 -25 16 -12 7 7 7 13 1 17 -6 3 -14 1 -17 -5z"/>
<path d="M3093 988 c1 -48 -4 -78 -14 -72 -7 4 -9 -2 -7 -17 5 -38 33 -30 32
8 -1 18 2 30 7 27 5 -3 9 -1 9 5 0 5 -6 12 -12 14 -9 4 -9 6 -1 6 6 1 9 10 6
21 -6 22 -21 28 -20 8z"/>
<path d="M3057 756 c-8 -21 19 -54 33 -40 7 7 10 20 8 30 -4 23 -33 30 -41 10z
m33 -22 c0 -8 -4 -14 -10 -14 -5 0 -10 9 -10 21 0 11 5 17 10 14 6 -3 10 -13
10 -21z"/>
<path d="M2991 873 c0 -10 3 -13 5 -6 3 7 13 9 22 6 15 -4 15 -3 2 6 -22 15
-30 14 -29 -6z"/>
<path d="M2991 834 c0 -11 3 -14 6 -6 3 7 2 16 -1 19 -3 4 -6 -2 -5 -13z"/>
<path d="M3140 836 c0 -2 7 -6 15 -10 8 -3 15 -1 15 4 0 6 -7 10 -15 10 -8 0
-15 -2 -15 -4z"/>
<path d="M2993 745 c0 -38 2 -53 4 -32 2 20 2 52 0 70 -2 17 -4 1 -4 -38z"/>
<path d="M2998 635 c2 -19 6 -35 8 -35 2 0 4 16 4 35 0 19 -4 35 -8 35 -4 0
-6 -16 -4 -35z"/>
<path d="M3004 568 c3 -13 6 -29 6 -35 0 -7 4 -13 8 -13 4 0 6 16 4 35 -2 19
-9 35 -14 35 -6 0 -8 -10 -4 -22z"/>
<path d="M3020 496 c0 -8 4 -17 9 -20 5 -4 7 3 4 14 -6 23 -13 26 -13 6z"/>
<path d="M3040 456 c0 -2 8 -10 18 -17 15 -13 16 -12 3 4 -13 16 -21 21 -21
13z"/>
<path d="M923 4405 c0 -27 2 -38 4 -22 2 15 2 37 0 50 -2 12 -4 0 -4 -28z"/>
<path d="M5532 4430 c0 -14 2 -19 5 -12 2 6 2 18 0 25 -3 6 -5 1 -5 -13z"/>
<path d="M5822 4380 c0 -14 2 -19 5 -12 2 6 2 18 0 25 -3 6 -5 1 -5 -13z"/>
<path d="M682 4010 c0 -14 2 -19 5 -12 2 6 2 18 0 25 -3 6 -5 1 -5 -13z"/>
<path d="M1312 3960 c0 -14 2 -19 5 -12 2 6 2 18 0 25 -3 6 -5 1 -5 -13z"/>
<path d="M212 3820 c0 -14 2 -19 5 -12 2 6 2 18 0 25 -3 6 -5 1 -5 -13z"/>
<path d="M4502 3490 c0 -14 2 -19 5 -12 2 6 2 18 0 25 -3 6 -5 1 -5 -13z"/>
<path d="M1501 3304 c0 -11 3 -14 6 -6 3 7 2 16 -1 19 -3 4 -6 -2 -5 -13z"/>
<path d="M172 3035 c0 -16 2 -22 5 -12 2 9 2 23 0 30 -3 6 -5 -1 -5 -18z"/>
<path d="M5712 2980 c0 -14 2 -19 5 -12 2 6 2 18 0 25 -3 6 -5 1 -5 -13z"/>
<path d="M5232 2790 c0 -14 2 -19 5 -12 2 6 2 18 0 25 -3 6 -5 1 -5 -13z"/>
<path d="M5652 2790 c0 -14 2 -19 5 -12 2 6 2 18 0 25 -3 6 -5 1 -5 -13z"/>
<path d="M532 2740 c0 -14 2 -19 5 -12 2 6 2 18 0 25 -3 6 -5 1 -5 -13z"/>
<path d="M1232 2370 c0 -14 2 -19 5 -12 2 6 2 18 0 25 -3 6 -5 1 -5 -13z"/>
<path d="M4701 2274 c0 -11 3 -14 6 -6 3 7 2 16 -1 19 -3 4 -6 -2 -5 -13z"/>
<path d="M4882 960 c0 -14 2 -19 5 -12 2 6 2 18 0 25 -3 6 -5 1 -5 -13z"/>
<path d="M5512 540 c0 -14 2 -19 5 -12 2 6 2 18 0 25 -3 6 -5 1 -5 -13z"/>
<path d="M814 420 c0 -52 1 -74 3 -47 2 26 2 68 0 95 -2 26 -3 4 -3 -48z"/>
<path d="M342 400 c0 -14 2 -19 5 -12 2 6 2 18 0 25 -3 6 -5 1 -5 -13z"/>
<path d="M3951 304 c0 -11 3 -14 6 -6 3 7 2 16 -1 19 -3 4 -6 -2 -5 -13z"/>
<path d="M4703 140 c0 -25 2 -35 4 -22 2 12 2 32 0 45 -2 12 -4 2 -4 -23z"/>
<path d="M5432 120 c0 -14 2 -19 5 -12 2 6 2 18 0 25 -3 6 -5 1 -5 -13z"/>
</g>
</svg>
